<svg width="34" height="42" viewBox="0 0 34 42" fill="none" xmlns="http://www.w3.org/2000/svg" xmlns:xlink="http://www.w3.org/1999/xlink">
<path d="M16,-1C11.625,-0.995 7.432,0.745 4.338,3.838C1.245,6.932 -0.495,11.125 -0.5,15.5C-0.5,29.619 14.5,40.282 15.139,40.728C15.392,40.905 15.692,41 16,41C16.308,41 16.608,40.905 16.861,40.728C17.5,40.282 32.5,29.619 32.5,15.5C32.495,11.125 30.755,6.932 27.662,3.838C24.569,0.745 20.375,-0.995 16,-1ZM16,9.5C17.187,9.5 18.347,9.852 19.333,10.511C20.32,11.17 21.089,12.108 21.543,13.204C21.997,14.3 22.116,15.507 21.885,16.671C21.653,17.834 21.082,18.904 20.243,19.743C19.404,20.582 18.334,21.153 17.171,21.385C16.007,21.616 14.8,21.497 13.704,21.043C12.608,20.589 11.67,19.82 11.011,18.833C10.352,17.847 10,16.687 10,15.5C10,13.909 10.632,12.383 11.757,11.257C12.883,10.132 14.409,9.5 16,9.5Z" fill="#DFDFDF"/>
</svg>
