<svg width="56" height="36" viewBox="0 0 56 36" fill="none" xmlns="http://www.w3.org/2000/svg" xmlns:xlink="http://www.w3.org/1999/xlink">
<path d="M7,0C3.691,0 1,2.691 1,6L1,30C1,33.309 3.691,36 7,36L49,36C52.309,36 55,33.309 55,30L55,6C55,2.691 52.309,0 49,0L7,0ZM13,30L7,30L7,24C10.309,24 13,26.691 13,30ZM7,12L7,6L13,6C13,9.309 10.309,12 7,12ZM43,30C43,26.691 45.691,24 49,24L49,30L43,30ZM49,12C45.691,12 43,9.309 43,6L49,6L49,12ZM17.5,18C17.5,16.621 17.772,15.256 18.299,13.982C18.827,12.708 19.6,11.55 20.575,10.575C21.55,9.6 22.708,8.827 23.982,8.299C25.256,7.772 26.621,7.5 28,7.5C29.379,7.5 30.744,7.772 32.018,8.299C33.292,8.827 34.45,9.6 35.425,10.575C36.4,11.55 37.173,12.708 37.701,13.982C38.228,15.256 38.5,16.621 38.5,18C38.5,19.379 38.228,20.744 37.701,22.018C37.173,23.292 36.4,24.45 35.425,25.425C34.45,26.4 33.292,27.173 32.018,27.701C30.744,28.228 29.379,28.5 28,28.5C26.621,28.5 25.256,28.228 23.982,27.701C22.708,27.173 21.55,26.4 20.575,25.425C19.6,24.45 18.827,23.292 18.299,22.018C17.772,20.744 17.5,19.379 17.5,18ZM24.625,13.5C24.625,14.409 25.272,15.159 26.125,15.338L26.125,19.875L25.75,19.875C24.719,19.875 23.875,20.719 23.875,21.75C23.875,22.781 24.719,23.625 25.75,23.625L30.25,23.625C31.281,23.625 32.125,22.781 32.125,21.75C32.125,20.719 31.281,19.875 30.25,19.875L29.875,19.875L29.875,13.5C29.875,12.469 29.031,11.625 28,11.625L26.5,11.625C25.469,11.625 24.625,12.469 24.625,13.5Z" fill="#FFFFFF"/>
</svg>
