<svg width="32" height="50" viewBox="0 0 32 50" fill="none" xmlns="http://www.w3.org/2000/svg" xmlns:xlink="http://www.w3.org/1999/xlink">
<path d="M8.56,1.076C8.651,0.765 8.841,0.491 9.101,0.297C9.36,0.103 9.676,-0.002 10,-0.001L22,-0.001C22.237,-0.001 22.472,0.055 22.683,0.164C22.894,0.272 23.077,0.429 23.216,0.622C23.355,0.815 23.446,1.038 23.482,1.272C23.517,1.507 23.497,1.747 23.422,1.973L18.082,17.999L29.5,17.999C29.781,17.998 30.056,18.077 30.294,18.226C30.533,18.374 30.725,18.587 30.848,18.839C30.972,19.091 31.022,19.373 30.993,19.653C30.964,19.932 30.857,20.198 30.685,20.42L9.685,47.42C9.47,47.698 9.164,47.891 8.821,47.967C8.477,48.042 8.118,47.994 7.807,47.832C7.495,47.67 7.25,47.404 7.114,47.079C6.979,46.755 6.962,46.393 7.066,46.058L12.469,28.499L2.5,28.499C2.267,28.499 2.037,28.444 1.828,28.34C1.62,28.236 1.438,28.084 1.298,27.898C1.159,27.711 1.064,27.494 1.023,27.265C0.981,27.035 0.994,26.799 1.06,26.576L8.56,1.076Z" fill="#FFFFFF"/>
</svg>
