<svg width="40" height="40" viewBox="0 0 40 40" fill="none" xmlns="http://www.w3.org/2000/svg" xmlns:xlink="http://www.w3.org/1999/xlink">
<path d="M18,8L24,8L30.58,1.4C30.766,1.213 30.987,1.064 31.231,0.962C31.475,0.861 31.736,0.808 32,0.808C32.264,0.808 32.525,0.861 32.769,0.962C33.013,1.064 33.234,1.213 33.42,1.4L38.58,6.58C38.952,6.955 39.162,7.462 39.162,7.99C39.162,8.518 38.952,9.025 38.58,9.4L34,14L18,14L18,18C18,18.53 17.789,19.039 17.414,19.414C17.039,19.789 16.53,20 16,20C15.47,20 14.961,19.789 14.586,19.414C14.211,19.039 14,18.53 14,18L14,12C14,10.939 14.421,9.922 15.172,9.172C15.922,8.421 16.939,8 18,8ZM6,18L6,26L1.42,30.58C1.047,30.955 0.838,31.462 0.838,31.99C0.838,32.518 1.047,33.025 1.42,33.4L6.58,38.58C6.766,38.767 6.987,38.916 7.231,39.018C7.475,39.119 7.736,39.172 8,39.172C8.264,39.172 8.525,39.119 8.769,39.018C9.013,38.916 9.234,38.767 9.42,38.58L18,30L26,30C26.53,30 27.039,29.789 27.414,29.414C27.789,29.039 28,28.53 28,28L28,26L30,26C30.53,26 31.039,25.789 31.414,25.414C31.789,25.039 32,24.53 32,24L32,22L34,22C34.53,22 35.039,21.789 35.414,21.414C35.789,21.039 36,20.53 36,20L36,18L22,18L22,20C22,21.061 21.579,22.078 20.828,22.828C20.078,23.579 19.061,24 18,24L14,24C12.939,24 11.922,23.579 11.172,22.828C10.421,22.078 10,21.061 10,20L10,14L6,18Z" fill="#FFFFFF"/>
</svg>
