<svg width="34" height="40" viewBox="0 0 34 40" fill="none" xmlns="http://www.w3.org/2000/svg" xmlns:xlink="http://www.w3.org/1999/xlink">
<path d="M33,20C33.001,20.509 32.871,21.01 32.621,21.454C32.371,21.898 32.011,22.27 31.575,22.533L4.56,39.059C4.105,39.338 3.583,39.49 3.049,39.5C2.515,39.51 1.988,39.377 1.523,39.116C1.061,38.858 0.677,38.482 0.41,38.026C0.142,37.571 0.001,37.053 0,36.524L0,3.476C0.001,2.947 0.142,2.429 0.41,1.974C0.677,1.518 1.061,1.142 1.523,0.884C1.988,0.623 2.515,0.49 3.049,0.5C3.583,0.509 4.105,0.662 4.56,0.941L31.575,17.467C32.011,17.73 32.371,18.102 32.621,18.546C32.871,18.99 33.001,19.491 33,20Z" fill="#F7F7F6"/>
</svg>
